<?xml version="1.0" encoding="UTF-8"?>
<svg id="_圖層_1" data-name="圖層_1" xmlns="http://www.w3.org/2000/svg" version="1.1" viewBox="0 0 159.95 36.47">
  <!-- Generator: Adobe Illustrator 29.7.1, SVG Export Plug-In . SVG Version: 2.1.1 Build 8)  -->
  <defs>
    <style>
      .st0 {
        fill: #392f28;
      }
    </style>
  </defs>
  <path class="st0" d="M9.96,29.06c.2-.08.42-.09.63-.02l.1.05.28.14c.69.33,1.7.67,2.76.78,1.22.13,2.41-.06,3.32-.8l.11-.08c.24-.14.54-.15.8-.02l.13.08.23.16c1.22.79,3.73,1.59,6.05-.16.27-.2.65-.24.96-.04,1.11.71,3.86,1.62,6.37,0,.29-.19.66-.18.94.01.46.32,2.01,1.03,4.38,1.03v1.52c-2.28,0-3.97-.59-4.86-1.07-2.83,1.61-5.75.81-7.25.01-2.85,1.9-5.8.96-7.31.03-1.26.84-2.73.98-4.03.85-1.27-.13-2.45-.54-3.27-.93-.62.3-1.47.58-2.32.79-1.01.24-2.15.4-3.02.33l.13-1.51c.64.06,1.59-.06,2.54-.29.96-.23,1.8-.53,2.23-.79l.1-.05ZM21.24,1.63c.3.05.73.31.73.85v14.32c.14-.44.27-.93.38-1.47.23-1.15.36-2.45.42-3.78.12-2.66-.04-5.39-.23-7.14-.08-.78.73-1.15,1.27-.83l.11.07.73.61c6.85,5.86,8.44,12.47,8.33,15.91h1.96c.3,0,.58.16.73.42l.06.12.13.34c.63,1.68.86,3.28.94,4.52.04.66.03,1.23.01,1.65,0,.06,0,.11,0,.17.08,0,.15,0,.23,0v1.52c-2.28,0-3.97-.59-4.86-1.07-2.83,1.61-5.75.81-7.25.01-2.85,1.9-5.8.96-7.31.03-1.25.83-2.72.98-4.02.85-1.24-.13-2.39-.51-3.21-.89-1.66,1.13-3.68,1.2-5.19,1.09l-.7-.05v-3.31h.75s.75,0,.75,0v1.88c1.34.02,2.73-.2,3.8-1.05.22-.17.52-.23.8-.14l.12.05.28.14c.69.32,1.7.67,2.76.77,1.22.12,2.41-.06,3.32-.81l.11-.08c.24-.14.54-.15.8-.02l.13.08.23.16c1.22.79,3.73,1.59,6.05-.16.27-.2.65-.24.96-.04,1.11.71,3.86,1.62,6.37,0,.29-.19.66-.18.94.01.34.23,1.26.68,2.65.9.05-1.1.04-3.24-.81-5.57H10.18s-.12.08-.23.22c-.14.19-.27.46-.38.79-.23.65-.34,1.36-.36,1.62-.03.42-.38.8-.85.8h-2.39v.44h-1.5v-1.1c0-.47.38-.86.85-.86h2.48c.07-.41.18-.92.35-1.41.14-.4.33-.83.59-1.18.26-.35.64-.71,1.18-.82h.08s.05-.01.08-.01h6.09l-6.71-2.06c-.71-.22-.8-1.16-.22-1.54,6.61-4.34,9.97-10.95,11.04-14.34.16-.52.66-.63.95-.59ZM21.97,20.16h3.72l-3.72-.89v.89ZM24.17,5.85c.12,1.67.19,3.74.1,5.77-.06,1.38-.2,2.76-.44,4.01-.17.85-.39,1.66-.69,2.37l8.35,1.98c.05-2.92-1.31-8.75-7.31-14.13ZM20.47,5.77c-1.66,3.45-4.63,7.88-9.28,11.28l9.28,2.85V5.77Z"/>
  <path class="st0" d="M156.7,29.01c0,.74-.28,1.39-.83,1.95-.52.52-1.17.78-1.95.78s-1.39-.26-1.95-.78c-.52-.56-.78-1.22-.78-2s.26-1.43.78-1.95c.56-.52,1.21-.78,1.95-.78.78,0,1.43.28,1.95.84.56.56.83,1.21.83,1.95Z"/>
  <path class="st0" d="M140.65,12.42c-.59-1.19-1.37-2.15-2.34-2.9-.93-.74-2-1.11-3.23-1.11s-2.21.3-2.95.89c-.74.59-1.34,1.34-1.78,2.23-.82,1.67-1.22,3.82-1.22,6.46,0,3.23.54,5.94,1.61,8.13,1.34,2.67,3.25,4.01,5.74,4.01,2.04,0,3.56-1.04,4.57-3.12.85-1.71,1.28-3.84,1.28-6.4,0-3.27-.56-5.99-1.67-8.18ZM135.69,6.85c1.63,0,3.19.33,4.68,1,1.52.63,2.86,1.52,4.01,2.67,1.19,1.11,2.12,2.43,2.78,3.95.71,1.52,1.06,3.14,1.06,4.84s-.35,3.32-1.06,4.84c-.67,1.48-1.6,2.8-2.78,3.95-1.15,1.11-2.49,2-4.01,2.67-1.48.63-3.04.95-4.68.95-3.27,0-6.14-1.21-8.63-3.62-1.19-1.15-2.13-2.47-2.84-3.95-.67-1.52-1-3.14-1-4.84s.33-3.32,1-4.84c.71-1.52,1.65-2.84,2.84-3.95,2.49-2.45,5.36-3.67,8.63-3.67Z"/>
  <path class="st0" d="M108.42,7.29c1.6,0,3.32-.09,5.18-.28.07.11.11.33.11.67s-.04.58-.11.72c-.71,0-1.26.07-1.67.22-.41.15-.63.28-.67.39-.18.41-.3.89-.33,1.45v16.15c0,1.08.11,1.89.33,2.45.22.48,1.02.72,2.4.72h2.39c1.49,0,2.6-.37,3.34-1.11.78-.78,1.47-1.97,2.06-3.56.04-.15.17-.22.39-.22.67,0,1.08.07,1.22.22-.18.48-.37,1.02-.56,1.61-.19.56-.37,1.11-.56,1.67-.45,1.15-.74,2.15-.89,3.01h-12.92l-5.01.06c-.07-.11-.11-.33-.11-.67s.04-.56.11-.67c.15,0,.46-.04.95-.11.82-.11,1.3-.3,1.45-.56.18-.45.28-1.6.28-3.45v-13.53c0-1.78-.09-2.93-.28-3.45-.26-.41-1.06-.61-2.4-.61-.07-.15-.11-.39-.11-.72s.04-.56.11-.67c1.86.19,3.62.28,5.29.28Z"/>
  <path class="st0" d="M90.94,7.02c1.86.19,3.62.28,5.29.28s3.32-.09,5.18-.28c.07.11.11.33.11.67s-.04.58-.11.72c-.71,0-1.26.07-1.67.22-.41.15-.63.28-.67.39-.19.41-.3.89-.33,1.45v17.59c.04.56.11.97.22,1.22.11.22.26.39.44.5.22.07.45.15.67.22.41.07.85.11,1.34.11.07.15.11.39.11.72s-.04.56-.11.67c-3.49-.33-6.98-.33-10.47,0-.07-.11-.11-.33-.11-.67s.04-.58.11-.72c.78,0,1.35-.07,1.73-.22.37-.19.59-.33.67-.45.19-.45.28-1.6.28-3.45v-13.53c0-1.78-.09-2.93-.28-3.45-.26-.41-1.06-.61-2.39-.61-.07-.15-.11-.39-.11-.72s.04-.56.11-.67Z"/>
  <path class="st0" d="M72.63,31.51c-1.89-.22-3.23-.33-4.01-.33s-2.06.11-3.95.33c-.07-.07-.11-.26-.11-.56-.04-.33-.02-.59.06-.78.52,0,1.04-.15,1.56-.45.56-.33.89-.58,1-.72.48-.85.91-1.71,1.28-2.56l7.85-18.04c.11-.22.32-.5.61-.84.3-.37.59-.56.89-.56s.5.09.61.28l7.52,18.6c.26.59.45,1.1.56,1.5.15.37.3.76.45,1.17.19.37.43.67.72.89.3.19.59.33.89.45.41.15.85.22,1.34.22.07.19.11.45.11.78.04.33.02.54-.06.61-2.23-.22-4.03-.33-5.4-.33s-3.06.11-5.07.33c-.07-.11-.11-.37-.11-.78s.04-.61.11-.61c.93,0,1.65-.22,2.17-.67.22-.15.33-.3.33-.45,0-.37-.37-1.39-1.11-3.06l-1.11-2.67c-.11-.11-.17-.17-.17-.17h-7.41c-.07,0-.17.06-.28.17-.19.37-.39.85-.61,1.45-.22.56-.45,1.09-.67,1.61-.56,1.23-.84,2.02-.84,2.39,0,.33.13.59.39.78.26.15.56.28.89.39.59.15,1.11.22,1.56.22.11.15.15.41.11.78,0,.33-.04.54-.11.61ZM72.74,21.16c0,.11.65.17,1.95.17h2.62c.41,0,.91-.02,1.5-.06l.06-.11v-.11l-3.01-7.18-3.12,7.18v.11Z"/>
  <path class="st0" d="M56.65,30.18c.89,0,1.69-.26,2.39-.78.71-.56,1.06-1.48,1.06-2.78,0-1.11-.69-2.28-2.06-3.51-.56-.52-1.15-.98-1.78-1.39-.63-.41-1.23-.8-1.78-1.17-.56-.41-1.17-.84-1.84-1.28-.63-.45-1.21-.95-1.73-1.5-1.08-1.22-1.61-2.69-1.61-4.4,0-1.82.84-3.4,2.51-4.73,1.56-1.26,3.34-1.89,5.35-1.89,1.08,0,2.08.11,3.01.33.97.22,2,.45,3.12.67.11.97.19,1.95.22,2.95.07,1,.15,2.06.22,3.17-.15.15-.28.22-.39.22-.71,0-1.08-.09-1.11-.28-.19-1.23-.69-2.39-1.5-3.51-.97-1.34-2.1-2-3.4-2-.74,0-1.45.22-2.12.67-.67.45-1,1.28-1,2.51,0,1.6,1.76,3.56,5.29,5.9.59.41,1.21.84,1.84,1.28.67.41,1.26.89,1.78,1.45,1.19,1.34,1.78,2.95,1.78,4.84s-.84,3.6-2.51,4.9c-1.6,1.26-3.41,1.89-5.46,1.89-2.15,0-4.49-.33-7.02-1-.37-1.97-.61-3.43-.72-4.4-.07-.97-.13-1.58-.17-1.84.07-.11.24-.22.5-.33.3-.11.54-.17.72-.17s.3.09.33.28c.19,1.19.82,2.43,1.89,3.73,1.26,1.45,2.65,2.17,4.18,2.17Z"/>
</svg>