<?xml version="1.0" encoding="UTF-8"?>
<svg id="_圖層_1" data-name="圖層_1" xmlns="http://www.w3.org/2000/svg" version="1.1" viewBox="0 0 40 40">
  <!-- Generator: Adobe Illustrator 29.7.1, SVG Export Plug-In . SVG Version: 2.1.1 Build 8)  -->
  <defs>
    <style>
      .st0 {
        fill: #392f28;
      }
    </style>
  </defs>
  <path class="st0" d="M9.35,30.82c.2-.08.42-.09.63-.02l.1.05.28.14c.69.33,1.7.67,2.76.78,1.22.13,2.41-.06,3.32-.8l.11-.08c.24-.14.54-.15.8-.02l.13.08.23.16c1.22.79,3.73,1.59,6.05-.16.27-.2.65-.24.96-.04,1.11.71,3.86,1.62,6.37,0,.29-.19.66-.18.94.01.46.32,2.01,1.03,4.38,1.03v1.52c-2.28,0-3.97-.59-4.86-1.07-2.83,1.61-5.75.81-7.25.01-2.85,1.9-5.8.96-7.31.03-1.26.84-2.73.98-4.03.85-1.27-.13-2.45-.54-3.27-.93-.62.3-1.47.58-2.32.79-1.01.24-2.15.4-3.02.33l.13-1.51c.64.06,1.59-.06,2.54-.29.96-.23,1.8-.53,2.23-.79l.1-.05ZM20.64,3.4c.3.05.73.31.73.85v14.32c.14-.44.27-.93.38-1.47.23-1.15.36-2.45.42-3.78.12-2.66-.04-5.39-.23-7.14-.08-.78.73-1.15,1.27-.83l.11.07.73.61c6.85,5.86,8.44,12.47,8.33,15.91h1.96c.3,0,.58.16.73.42l.06.12.13.34c.63,1.68.86,3.28.94,4.52.04.66.03,1.23.01,1.65,0,.06,0,.11,0,.17.08,0,.15,0,.23,0v1.52c-2.28,0-3.97-.59-4.86-1.07-2.83,1.61-5.75.81-7.25.01-2.85,1.9-5.8.96-7.31.03-1.25.83-2.72.98-4.02.85-1.24-.13-2.39-.51-3.21-.89-1.66,1.13-3.68,1.2-5.19,1.09l-.7-.05v-3.31h.75s.75,0,.75,0v1.88c1.34.02,2.73-.2,3.8-1.05.22-.17.52-.23.8-.14l.12.05.28.14c.69.32,1.7.67,2.76.77,1.22.12,2.41-.06,3.32-.81l.11-.08c.24-.14.54-.15.8-.02l.13.08.23.16c1.22.79,3.73,1.59,6.05-.16.27-.2.65-.24.96-.04,1.11.71,3.86,1.62,6.37,0,.29-.19.66-.18.94.01.34.23,1.26.68,2.65.9.05-1.1.04-3.24-.81-5.57H9.58s-.12.08-.23.22c-.14.19-.27.46-.38.79-.23.65-.34,1.36-.36,1.62-.03.42-.38.8-.85.8h-2.39v.44h-1.5v-1.1c0-.47.38-.86.85-.86h2.48c.07-.41.18-.92.35-1.41.14-.4.33-.83.59-1.18.26-.35.64-.71,1.18-.82h.08s.05-.01.08-.01h6.09l-6.71-2.06c-.71-.22-.8-1.16-.22-1.54,6.61-4.34,9.97-10.95,11.04-14.34.16-.52.66-.63.95-.59ZM21.37,21.93h3.72l-3.72-.89v.89ZM23.56,7.61c.12,1.67.19,3.74.1,5.77-.06,1.38-.2,2.76-.44,4.01-.17.85-.39,1.66-.69,2.37l8.35,1.98c.05-2.92-1.31-8.75-7.31-14.13ZM19.87,7.53c-1.66,3.45-4.63,7.88-9.28,11.28l9.28,2.85V7.53Z"/>
</svg>