<svg width="407" height="144" viewBox="0 0 407 144" fill="none" xmlns="http://www.w3.org/2000/svg">
<path d="M5.82129 29.1677C9.83666 7.45317 43.0611 -10.3273 82.7832 6.9519C83.6109 7.77444 85.2655 8.43142 85.2656 4.48315V2.0144H97.6787V24.2302H85.2656C84.4378 17.6476 77.4094 6.9519 55.4736 6.9519C31.1875 6.9521 17.3265 17.3895 23.2002 36.573C28.3112 53.2626 97.6791 61.2578 105.127 93.3474C112.575 125.437 82.7825 142.717 40.5781 137.78C-1.62642 132.843 -16.5214 88.4102 23.2002 66.1941C9.24102 53.1977 2.48242 47.2245 5.82129 29.1677ZM31.165 69.3689C-0.446824 83.2303 -5.93513 113.718 26.2188 128.501C58.3726 143.283 95.4732 126.036 93 106.326C91.0212 90.5577 50.9521 75.1178 31.165 69.3689ZM322.751 20.9402C342.243 2.29069 373.167 2.73115 392.117 22.0417L392.561 22.4998C411.064 41.8387 410.775 72.4299 391.911 91.4167L391.459 91.8669C372.148 110.817 341.221 110.675 322.084 91.6609L321.635 91.2078C318.866 88.386 316.505 85.3158 314.551 82.071C313.91 83.7118 313.268 85.5384 312.626 87.5505L312.624 87.5583C311.961 89.5055 311.297 91.453 310.634 93.4001L310.631 93.4109L310.626 93.4207C309.042 97.4267 307.992 100.901 307.469 103.845L307.4 104.23H260.862L242.709 104.427L242.568 104.22C242.381 103.945 242.267 103.577 242.196 103.161C242.124 102.737 242.09 102.222 242.09 101.623C242.09 101.024 242.124 100.509 242.196 100.085C242.267 99.6684 242.381 99.2993 242.568 99.0242L242.707 98.8201H242.953C243.442 98.82 244.534 98.698 246.266 98.4373L246.273 98.4353C247.73 98.2409 249.451 97.9835 250.869 97.6638C251.579 97.5037 252.198 97.3314 252.665 97.1492C252.898 97.0581 253.081 96.9684 253.214 96.8845C253.33 96.8114 253.382 96.7556 253.404 96.7273C253.696 96.015 253.937 94.6996 254.1 92.7244C254.264 90.7304 254.347 88.1163 254.347 84.8777V37.5623C254.347 34.4538 254.264 31.9043 254.1 29.9099C253.938 27.9482 253.698 26.5589 253.398 25.7068C253.234 25.4879 252.864 25.2333 252.23 24.9871C251.58 24.7345 250.732 24.5181 249.746 24.3425C247.777 23.9916 245.321 23.8142 242.953 23.8142H242.668L242.539 23.5603C242.221 22.9377 242.09 21.9999 242.09 20.8181C242.09 20.219 242.124 19.7033 242.196 19.2791C242.267 18.8628 242.381 18.4946 242.568 18.2195L242.725 17.991L242.999 18.0173C249.617 18.665 255.901 18.989 261.853 18.989C267.561 18.989 267.185 19.1832 273.789 18.5369L274.063 18.5105L274.219 18.738C274.406 19.0131 274.521 19.3813 274.592 19.7976C274.664 20.2219 274.698 20.7376 274.698 21.3367C274.698 22.5187 274.567 23.4571 274.249 24.0798L274.119 24.3328H273.834C273.197 24.3328 272.597 24.3168 272.04 24.3005C271.48 24.2842 270.966 24.2683 270.485 24.2683C269.519 24.2683 268.74 24.3345 268.089 24.5662C267.37 24.8219 266.835 25.0541 266.472 25.2615C266.29 25.3651 266.164 25.4563 266.082 25.531C266.002 25.6035 265.986 25.6415 265.985 25.6414L265.978 25.6638L265.968 25.6863C265.335 27.0489 264.947 28.6746 264.816 30.573V87.0193C264.816 90.7521 265.212 93.5311 265.969 95.3943C266.286 96.0598 267.044 96.6339 268.412 97.0388C269.776 97.4425 271.666 97.6521 274.1 97.6521H289.106C294.342 97.652 298.183 96.3706 300.717 93.8904C303.435 91.2299 305.858 87.1452 307.968 81.5964C308.072 81.2386 308.295 80.9552 308.624 80.7712C308.951 80.5884 309.355 80.5174 309.795 80.5173C311.001 80.5173 311.994 80.5829 312.762 80.7195C313.22 80.801 313.63 80.9133 313.965 81.072C303.12 62.0652 305.94 37.4322 322.293 21.3845L322.751 20.9402ZM163.012 22.5769H162.081C159.663 22.577 158.37 23.0325 157.71 23.5769C157.112 24.0703 156.893 24.7602 156.979 25.7185C157.069 26.7107 157.481 27.8633 158.018 29.0554C158.282 29.6429 158.567 30.2201 158.844 30.7761C158.981 31.0517 159.117 31.3237 159.245 31.5857L159.248 31.5916L159.601 32.3376L159.606 32.3503L159.611 32.364L159.618 32.3816C165.722 47.6944 178.91 80.4898 182.892 89.3308C186.672 97.7234 194.07 98.7711 197.199 98.2908L198.014 98.1648L198.125 98.5623L198.236 98.9578L199.906 104.889H162.814V101.334L162.813 101.333C162.703 101.193 162.619 101.004 162.608 100.784C162.599 100.575 162.659 100.404 162.719 100.291C162.825 100.089 162.978 99.9729 163.034 99.9314C163.112 99.8745 163.19 99.8304 163.252 99.7986C163.38 99.733 163.537 99.668 163.718 99.6023C164.426 99.3442 165.861 98.9379 168.52 98.3054L168.734 98.2507C169.782 97.9653 170.482 97.4943 170.955 96.9519L171.137 96.7253C171.536 96.1835 171.778 95.5377 171.893 94.8269C172.157 93.1875 171.726 91.334 171.219 90.1101L164.847 77.9802H124.672C122.66 82.2175 123.367 86.4354 125.394 90.0486C127.514 93.829 131.041 96.8663 134.203 98.3708C139.316 100.803 143.73 100.361 145.166 99.906L146.378 99.5212V104.889H112.911V99.9822L113.716 99.8708L123.561 98.532C120.331 94.7805 119.169 90.3647 119.066 86.2937C118.952 81.7627 120.141 77.603 121.297 75.1111C123.798 68.5022 127.906 58.3724 131.616 49.2332C135.341 40.0593 138.653 31.9163 139.577 29.2566C139.986 28.081 139.984 27.1558 139.77 26.4226C139.581 25.7772 139.209 25.2152 138.696 24.7273L138.468 24.5232C137.257 23.5 135.485 22.8959 133.96 22.6169L133.658 22.5662L132.873 22.4431V17.5505H163.012V22.5769ZM233.553 18.3279C233.639 18.5776 233.694 18.916 233.729 19.3152C233.764 19.7218 233.781 20.2221 233.781 20.8123C233.781 21.9821 233.714 22.8752 233.563 23.4548L233.473 23.8035H233.113C231.89 23.8035 230.984 24.051 230.348 24.4958C230.249 24.5649 230.13 24.6138 230.026 24.6501C229.916 24.6888 229.788 24.7252 229.65 24.7585C229.375 24.8254 229.031 24.8885 228.652 24.95C227.893 25.073 226.953 25.1914 226.045 25.3044C225.132 25.4182 224.253 25.5269 223.597 25.6306C223.267 25.6827 223.008 25.7314 222.835 25.7761C222.825 25.7786 222.816 25.7816 222.808 25.7839C222.507 27.1282 222.322 28.7131 222.259 30.5417V91.8982L222.286 92.5994C222.359 94.164 222.481 95.3163 222.647 96.071C222.822 96.7438 223.041 97.2216 223.282 97.5378C223.341 97.5513 223.423 97.5676 223.527 97.5847C223.754 97.6219 224.063 97.6626 224.43 97.7048C225.162 97.7891 226.104 97.8779 227.038 97.9587C227.971 98.0395 228.891 98.1123 229.579 98.1648C229.923 98.1911 230.209 98.2117 230.408 98.2263C230.508 98.2336 230.586 98.2401 230.639 98.2439C230.665 98.2458 230.687 98.2468 230.7 98.2478C230.707 98.2483 230.712 98.2495 230.716 98.2498H230.72L230.761 98.2517L230.801 98.2625L230.804 98.2634C230.806 98.2641 230.811 98.2641 230.816 98.2654C230.827 98.268 230.843 98.273 230.864 98.2781C230.907 98.2883 230.969 98.3033 231.047 98.321C231.202 98.3566 231.418 98.4036 231.66 98.4509C232.156 98.5478 232.724 98.6365 233.113 98.6365H233.473L233.563 98.9851C233.714 99.5648 233.781 100.458 233.781 101.628C233.781 102.218 233.764 102.718 233.729 103.125C233.694 103.524 233.639 103.861 233.553 104.111L233.422 104.489L233.028 104.417C229.908 103.843 223.546 103.55 217.144 103.55C210.742 103.55 204.379 103.843 201.259 104.417L200.866 104.489L200.734 104.111C200.648 103.861 200.594 103.524 200.56 103.125C200.524 102.718 200.507 102.218 200.507 101.628C200.507 100.458 200.573 99.5648 200.724 98.9851L200.814 98.6365H201.174C201.869 98.6365 204.092 98.5733 206.226 98.4441C207.292 98.3795 208.328 98.2984 209.136 98.2029C209.541 98.155 209.88 98.1042 210.134 98.0515C210.261 98.0251 210.358 97.9992 210.428 97.9763C210.457 97.9666 210.477 97.9579 210.488 97.9529C211.118 97.3433 211.436 96.9111 211.539 96.6404C211.695 95.9001 211.82 94.5552 211.903 92.575C211.987 90.5768 212.029 87.9608 212.029 84.7263V37.5193C212.029 31.3516 211.86 27.3989 211.539 25.6111C211.532 25.5993 211.519 25.5771 211.489 25.5476C211.441 25.4995 211.364 25.4408 211.253 25.3757C211.029 25.2449 210.709 25.1118 210.302 24.9832C209.489 24.7267 208.406 24.5085 207.244 24.3318C204.922 23.9786 202.36 23.8035 201.174 23.8035H200.814L200.724 23.4548C200.573 22.8752 200.507 21.982 200.507 20.8123C200.507 20.2221 200.524 19.7218 200.56 19.3152C200.594 18.916 200.648 18.5776 200.734 18.3279L200.866 17.948L201.262 18.0232C202.909 18.3398 206.136 18.5817 209.359 18.7439C212.571 18.9055 215.738 18.987 217.244 18.9871C218.682 18.9871 221.8 18.9055 224.979 18.7439C228.167 18.5817 231.377 18.3398 233.024 18.0232L233.421 17.948L233.553 18.3279ZM383.367 29.0212C366.293 12.3669 341.006 10.4638 326.154 24.616L325.8 24.9587C310.765 39.7135 312.363 65.883 329.572 83.4197L330.386 84.2302C347.596 101.017 373.152 102.817 387.952 88.2927C402.987 73.538 401.39 47.3675 384.181 29.8308L383.367 29.0212ZM126.537 71.8357H162.153L143.052 29.1853L126.537 71.8357Z" fill="#181818"/>
<path d="M390.916 126.969H389.453L385.852 137.72H384.687L380.869 128.025H380.76L376.942 137.72H375.832L372.067 126.969H370.686V125.696H376.156V126.969H373.692L376.481 135.337H376.59L380.354 125.696H381.41L385.283 135.364H385.418L387.964 126.969H385.608V125.696H390.916V126.969Z" fill="#181818"/>
<path d="M367.952 131.707C367.952 133.513 367.428 135.011 366.381 136.203C365.334 137.394 363.898 137.99 362.075 137.99C360.27 137.99 358.861 137.403 357.85 136.23C356.857 135.038 356.361 133.558 356.361 131.788C356.361 130.037 356.857 128.548 357.85 127.32C358.843 126.074 360.288 125.451 362.183 125.451C364.079 125.451 365.514 126.074 366.489 127.32C367.464 128.548 367.952 130.01 367.952 131.707ZM366.354 131.68C366.354 130.272 365.993 129.107 365.271 128.187C364.548 127.248 363.501 126.778 362.129 126.778C360.757 126.778 359.71 127.257 358.988 128.214C358.284 129.153 357.932 130.317 357.932 131.707C357.932 133.079 358.284 134.253 358.988 135.228C359.71 136.185 360.757 136.663 362.129 136.663C363.501 136.663 364.548 136.185 365.271 135.228C365.993 134.271 366.354 133.088 366.354 131.68Z" fill="#181818"/>
<path d="M353.069 137.719H347.111V136.474H349.331V121.146C348.862 120.676 348.356 120.378 347.815 120.252C347.273 120.126 346.704 120.062 346.109 120.062C345.116 120.062 344.321 120.351 343.725 120.929C343.13 121.507 342.832 122.355 342.832 123.475V125.695H346.271V126.968H342.832V136.474H345.757V137.719H339.122V136.474H341.342V126.968H339.555V125.695H341.342V123.502C341.342 122.075 341.767 120.938 342.615 120.089C343.482 119.241 344.547 118.817 345.811 118.817C346.569 118.817 347.228 118.871 347.788 118.979C348.347 119.087 348.862 119.322 349.331 119.683V119.087H350.821V136.474H353.069V137.719Z" fill="#181818"/>
<path d="M325.426 125.479C326.274 125.479 326.933 125.686 327.403 126.101L327.836 128.782L326.59 128.945L326.13 126.887C325.859 126.815 325.552 126.778 325.209 126.778C324.415 126.778 323.765 127.112 323.259 127.78C322.754 128.448 322.501 129.297 322.501 130.326V136.474H325.453V137.719H318.764V136.474H321.011V126.968H318.737V125.695H322.42V127.835C322.654 127.167 323.052 126.607 323.611 126.156C324.171 125.704 324.776 125.479 325.426 125.479Z" fill="#181818"/>
<path d="M315.901 137.72H312.164V135.337C311.785 136.131 311.225 136.772 310.485 137.26C309.744 137.747 308.887 137.991 307.912 137.991C306.72 137.991 305.727 137.621 304.933 136.88C304.139 136.14 303.741 134.949 303.741 133.306V126.969H301.521V125.696H305.231V132.954C305.231 134.326 305.52 135.292 306.098 135.851C306.693 136.393 307.443 136.664 308.345 136.664C309.429 136.664 310.322 136.24 311.026 135.391C311.748 134.542 312.128 133.685 312.164 132.818V126.969H309.51V125.696H313.653V136.474H315.901V137.72Z" fill="#181818"/>
<path d="M298.576 131.707C298.576 133.513 298.053 135.011 297.005 136.203C295.958 137.394 294.523 137.99 292.7 137.99C290.894 137.99 289.486 137.403 288.475 136.23C287.482 135.038 286.985 133.558 286.985 131.788C286.985 130.037 287.482 128.548 288.475 127.32C289.468 126.074 290.912 125.451 292.808 125.451C294.704 125.451 296.139 126.074 297.114 127.32C298.089 128.548 298.576 130.01 298.576 131.707ZM296.978 131.68C296.978 130.272 296.617 129.107 295.895 128.187C295.173 127.248 294.126 126.778 292.754 126.778C291.382 126.778 290.334 127.257 289.612 128.214C288.908 129.153 288.556 130.317 288.556 131.707C288.556 133.079 288.908 134.253 289.612 135.228C290.334 136.185 291.382 136.663 292.754 136.663C294.126 136.663 295.173 136.185 295.895 135.228C296.617 134.271 296.978 133.088 296.978 131.68Z" fill="#181818"/>
<path d="M284.38 126.969H282.863L278.53 137.72L276.77 142.243H278.963V143.488H273.005V142.243H275.334L277.068 137.639L272.653 126.969H271.164V125.696H276.58V126.969H274.224L277.853 135.716H278.015L281.319 126.969H279.126V125.696H284.38V126.969Z" fill="#181818"/>
<path d="M261.916 137.719H255.986V136.474H258.206V130.489C258.206 129.116 257.917 128.16 257.34 127.618C256.78 127.058 256.076 126.778 255.227 126.778C254.054 126.778 253.115 127.167 252.411 127.943C251.707 128.701 251.337 129.55 251.3 130.489V136.474H253.521V137.719H247.563V136.474H249.811V126.968H247.536V125.695H251.3V127.916C252.185 126.273 253.611 125.451 255.579 125.451C256.771 125.451 257.755 125.822 258.531 126.562C259.308 127.302 259.696 128.494 259.696 130.136V136.474H261.916V137.719Z" fill="#181818"/>
<path d="M240.647 122.337V120.198H242.326V122.337H240.647ZM244.547 137.72H238.589V136.474H240.837V126.968H238.562V125.696H242.326V136.474H244.547V137.72Z" fill="#181818"/>
<path d="M227.404 137.719H221.473V136.474H223.694V120.333H221.446V119.087H225.184V136.474H227.404V137.719Z" fill="#181818"/>
<path d="M218.202 134.361C218.021 135.372 217.516 136.23 216.685 136.934C215.855 137.638 214.735 137.99 213.327 137.99C211.648 137.99 210.303 137.448 209.292 136.365C208.281 135.282 207.775 133.783 207.775 131.87C207.775 129.992 208.263 128.457 209.238 127.266C210.213 126.056 211.522 125.451 213.165 125.451C214.808 125.451 216.035 125.993 216.848 127.076C217.678 128.142 218.093 129.36 218.093 130.732C218.093 131.129 218.048 131.581 217.958 132.086H209.346C209.382 133.531 209.752 134.659 210.456 135.472C211.161 136.266 212.154 136.663 213.435 136.663C215.331 136.663 216.505 135.797 216.956 134.063L218.202 134.361ZM216.523 130.841C216.613 129.884 216.378 128.972 215.819 128.105C215.259 127.221 214.347 126.778 213.083 126.778C211.874 126.778 210.98 127.185 210.402 127.997C209.843 128.81 209.5 129.757 209.373 130.841H216.523Z" fill="#181818"/>
<path d="M205.195 126.969H203.651L199.237 137.72H198.073L193.469 126.969H192.006V125.696H197.396V126.969H195.067L198.668 135.635H198.831L202.162 126.969H199.968V125.696H205.195V126.969Z" fill="#181818"/>
<path d="M180.142 126.643C180.647 126.228 181.252 125.93 181.956 125.749C182.678 125.551 183.401 125.451 184.123 125.451C186.903 125.451 188.293 126.796 188.293 129.487V135.336C188.293 136.257 188.645 136.717 189.349 136.717C189.711 136.717 190.008 136.654 190.243 136.528L190.27 137.611C189.873 137.864 189.404 137.99 188.862 137.99C187.49 137.99 186.804 137.178 186.804 135.553V135.499C186.425 136.149 185.874 136.726 185.152 137.232C184.448 137.737 183.617 137.99 182.66 137.99C181.866 137.99 181.054 137.755 180.223 137.286C179.411 136.799 179.004 135.914 179.004 134.632C179.004 133.115 179.609 132.122 180.819 131.653C182.028 131.166 183.301 130.922 184.637 130.922C185.016 130.922 185.387 130.94 185.748 130.976C186.127 130.994 186.479 131.012 186.804 131.03V129.757C186.804 128.837 186.587 128.114 186.154 127.591C185.739 127.049 184.98 126.778 183.879 126.778C182.976 126.778 182.164 126.959 181.442 127.32L180.954 129.487L179.709 129.324L180.142 126.643ZM186.804 133.305V132.195C186.461 132.159 186.091 132.132 185.694 132.113C185.296 132.077 184.881 132.059 184.448 132.059C183.473 132.059 182.579 132.213 181.767 132.52C180.972 132.809 180.575 133.458 180.575 134.47C180.575 135.336 180.855 135.923 181.415 136.23C181.974 136.519 182.516 136.663 183.04 136.663C183.942 136.663 184.782 136.356 185.558 135.742C186.334 135.11 186.75 134.298 186.804 133.305Z" fill="#181818"/>
<path d="M172.476 125.479C173.325 125.479 173.984 125.686 174.453 126.101L174.886 128.782L173.641 128.945L173.18 126.887C172.91 126.815 172.603 126.778 172.26 126.778C171.465 126.778 170.815 127.112 170.31 127.78C169.804 128.448 169.551 129.297 169.551 130.326V136.474H172.503V137.719H165.814V136.474H168.062V126.968H165.787V125.695H169.47V127.835C169.705 127.167 170.102 126.607 170.662 126.156C171.221 125.704 171.826 125.479 172.476 125.479Z" fill="#181818"/>
<path d="M163.54 125.316L162.132 125.425L161.591 121.498H156.58V136.338H159.749V137.72H151.922V136.338H155.037V121.498H150.027L149.485 125.425L148.104 125.316L148.619 120.117H162.999L163.54 125.316Z" fill="#181818"/>
</svg>
